inDegrees=yes
name=ik_MT_2026-08-11_12h33_01210270-000-000_orientations
DataType=double
version=3
OpenSimVersion=4.5
endheader
time	pelvis_tilt	pelvis_list	pelvis_rotation	pelvis_tx	pelvis_ty	pelvis_tz	hip_flexion_r	hip_adduction_r	hip_rotation_r	knee_angle_r	knee_angle_r_beta	ankle_angle_r	subtalar_angle_r	mtp_angle_r	hip_flexion_l	hip_adduction_l	hip_rotation_l	knee_angle_l	knee_angle_l_beta	ankle_angle_l	subtalar_angle_l	mtp_angle_l	lumbar_extension	lumbar_bending	lumbar_rotation	arm_flex_r	arm_add_r	arm_rot_r	elbow_flex_r	pro_sup_r	wrist_flex_r	wrist_dev_r	arm_flex_l	arm_add_l	arm_rot_l	elbow_flex_l	pro_sup_l	wrist_flex_l	wrist_dev_l
101.975	3.444940259869655	-6.626477357474835	-271.2779946510075	0	0.9399999999999999	0	23.52104500163503	-1.88424768697588	-17.04368104104319	-0.274932689671288	-0.004798480656127783	-9.740370804014143	0	0	9.217703158202768	-31.90555684661238	4.412852821589609	66.09293764046362	1.153539374141382	14.14058963353978	0	0	-1.065749647432487	10.51266664869455	3.537716474990506	-42.41632602618481	31.70389879374538	28.51004910400619	0.06507208962118263	45.00000025532075	0	0	-2.304692962508784	-5.590577294819179	3.307517826415808	0.5237763077651983	45.00000025532075	0	0
102	4.219445412443853	-6.098454842786583	-271.2323780583865	0	0.9399999999999999	0	21.59615312732335	-0.5568030298086666	-16.74682372063791	-0.6567289869471402	-0.01146208311551446	-8.705007511249899	0	0	15.14800211724662	-37.06974522720026	12.01507979713862	79.37225007864751	1.385307098588727	18.83883207461324	0	0	-1.127571156322209	11.51376452905505	3.543001150089958	-40.37079276688017	30.94077442640929	26.92835088677368	0.05967845292345204	45.00000025532093	0	0	-2.291349468741359	-5.029714578235982	3.63942365661726	0.4609236243136307	45.00000025532093	0	0
102.025	4.554571980125033	-8.114040276518768	-271.6170528700745	0	0.9399999999999999	0	22.22564755984036	0.3702851870839233	-16.72322730958228	-0.7715353261301421	-0.01346583173641922	-7.664080078727338	0	0	23.87553359380763	-37.58684147942432	20.19981660718035	91.63950355290555	1.599411061891244	20.48327949674517	0	0	0.6181987604441339	11.88378534129453	3.809631947571494	-37.77660800930633	30.3741637822809	25.90929735747907	0.05795211486297833	45.0000002553212	0	0	-1.602321675230723	-4.625055479269914	3.296172584018968	0.4239708661141991	45.0000002553212	0	0
102.05	4.448818069018034	-7.939268203829442	-272.2285001124597	0	0.9399999999999999	0	20.67798685084385	1.032614994462468	-16.74538235564461	-0.9270887943543624	-0.01618075191982824	-6.800602055959218	0	0	29.27038420700637	-35.7603119054301	26.69772705528942	101.959780429824	1.779533873110908	21.30724095049843	0	0	0.7206452807131686	11.77938528406476	4.062214992239761	-35.6445951399252	29.9621755375875	24.96213676089756	0.05543447887754545	45.0000002553214	0	0	-1.474634460211952	-4.246460607887133	2.639956253769031	0.3889535574187286	45.0000002553214	0	0
102.075	4.329082236318858	-7.372092025379755	-273.1119817104798	0	0.9399999999999999	0	18.78032738856482	1.798444820343468	-16.53350910648062	-1.043432186984617	-0.0182113271841667	-6.036351457851637	0	0	32.69387482468713	-33.45370493302435	30.11358802036993	110.5008927052629	1.928604404099822	23.46271695886844	0	0	0.5511281961115969	11.66335767204873	4.36236661081514	-33.73048039124214	29.5352609753861	24.29149036730093	0.05231757588704591	45.00000025532157	0	0	-1.628679157237068	-3.888366971566324	1.626327740013089	0.376861129400923	45.00000025532157	0	0
102.1	4.1703733896023	-7.536828272475605	-274.2413698237453	0	0.9399999999999999	0	17.87423780815903	2.467516689647812	-15.90963442535084	-0.7664603105624697	-0.01337725600517337	-5.088717924101081	0	0	35.0342434720059	-31.49288939669129	30.39275425872699	116.3831701040191	2.031269512223764	26.55153481348477	0	0	0.9120804259431738	11.68217585680562	4.68035052028434	-32.07293605175085	28.82269743804188	24.22803136096031	0.04945168696382113	45.00000025532169	0	0	-1.802737609183802	-3.383568935994953	0.263330958245489	0.3798811878684161	45.00000025532169	0	0
102.125	3.975138985097707	-6.940990735544154	-275.2986811675742	0	0.9399999999999999	0	16.2149232774171	2.798224251300265	-15.50207409165475	-0.4112596548528974	-0.007177835057798536	-4.210335078587611	0	0	36.99411726201647	-29.22205201655181	30.54633916069628	121.4336954741429	2.11941780888793	29.95698104902592	0	0	0.607742389154287	11.76252343967202	4.961052225094548	-30.89175200540266	27.88411342825778	24.6889835926094	0.04701920905601298	45.00000025532176	0	0	-2.236834460525665	-2.781037556136944	-1.038062945083945	0.3762074310553606	45.00000025532176	0	0
102.15	3.879091840524244	-6.662282415045805	-276.3867533261048	0	0.9399999999999999	0	14.91622574203945	3.137940084020318	-15.26732773778152	-0.0237219511814152	-0.0004140261531130539	-3.514871931551657	0	0	39.33899307898594	-27.36963041826937	29.37966113641445	124.4880789025631	2.172726856332215	32.26084450645271	0	0	0.6211538711004789	11.93465507237648	5.433809865255279	-30.17449704986777	26.81322524244074	25.73959502109032	0.04512255828480601	45.00000025532182	0	0	-2.897136553311629	-2.237675342596995	-2.056186460790574	0.3799211507582101	45.00000025532182	0	0
